<mxfile host="app.diagrams.net" agent="Mozilla/5.0 (X11; Linux x86_64; rv:129.0) Gecko/20100101 Firefox/129.0" version="24.7.12">
  <diagram name="Page-1" id="FeUbEui_3uBQ07DEuBJ8">
    <mxGraphModel grid="1" page="1" gridSize="10" guides="1" tooltips="1" connect="1" arrows="1" fold="1" pageScale="1" pageWidth="1100" pageHeight="850" math="0" shadow="0">
      <root>
        <mxCell id="0" />
        <mxCell id="1" parent="0" />
        <mxCell id="Zkl5If-U3AhfvewL6hoa-3" value="" style="verticalLabelPosition=bottom;verticalAlign=top;html=1;shape=mxgraph.infographic.shadedCube;isoAngle=15;fillColor=#666666;strokeColor=default;" vertex="1" parent="1">
          <mxGeometry x="230" y="360" width="560" height="300" as="geometry" />
        </mxCell>
        <mxCell id="Zkl5If-U3AhfvewL6hoa-4" value="Infrastructure Services" style="text;html=1;align=center;verticalAlign=middle;resizable=0;points=[];autosize=1;strokeColor=none;fillColor=none;fontFamily=Courier New;rotation=25.5;fontStyle=1;fontSize=18;arcSize=12;rounded=0;" vertex="1" parent="1">
          <mxGeometry x="225" y="554" width="270" height="40" as="geometry" />
        </mxCell>
        <mxCell id="Zkl5If-U3AhfvewL6hoa-5" value="" style="verticalLabelPosition=bottom;verticalAlign=top;html=1;shape=mxgraph.infographic.shadedCube;isoAngle=15;fillColor=#808080;strokeColor=default;" vertex="1" parent="1">
          <mxGeometry x="230" y="294" width="560" height="300" as="geometry" />
        </mxCell>
        <mxCell id="Zkl5If-U3AhfvewL6hoa-6" value="System Services" style="text;html=1;align=center;verticalAlign=middle;resizable=0;points=[];autosize=1;strokeColor=none;fillColor=none;fontFamily=Courier New;rotation=25.5;fontStyle=1;fontSize=18;arcSize=12;rounded=0;" vertex="1" parent="1">
          <mxGeometry x="265" y="488" width="190" height="40" as="geometry" />
        </mxCell>
        <mxCell id="Zkl5If-U3AhfvewL6hoa-7" value="" style="verticalLabelPosition=bottom;verticalAlign=top;html=1;shape=mxgraph.infographic.shadedCube;isoAngle=15;fillColor=#999999;strokeColor=default;" vertex="1" parent="1">
          <mxGeometry x="230" y="228" width="560" height="300" as="geometry" />
        </mxCell>
        <mxCell id="Zkl5If-U3AhfvewL6hoa-8" value="Platform Services" style="text;html=1;align=center;verticalAlign=middle;resizable=0;points=[];autosize=1;strokeColor=none;fillColor=none;fontFamily=Courier New;rotation=25.5;fontStyle=1;fontSize=18;arcSize=12;rounded=0;" vertex="1" parent="1">
          <mxGeometry x="255" y="422" width="210" height="40" as="geometry" />
        </mxCell>
        <mxCell id="Zkl5If-U3AhfvewL6hoa-9" value="" style="verticalLabelPosition=bottom;verticalAlign=top;html=1;shape=mxgraph.infographic.shadedCube;isoAngle=15;fillColor=#CCCCCC;strokeColor=default;" vertex="1" parent="1">
          <mxGeometry x="230" y="162" width="560" height="300" as="geometry" />
        </mxCell>
        <mxCell id="Zkl5If-U3AhfvewL6hoa-10" value="Application Services" style="text;html=1;align=center;verticalAlign=middle;resizable=0;points=[];autosize=1;strokeColor=none;fillColor=none;fontFamily=Courier New;rotation=25.5;fontStyle=1;fontSize=18;arcSize=12;rounded=0;" vertex="1" parent="1">
          <mxGeometry x="240" y="356" width="240" height="40" as="geometry" />
        </mxCell>
        <mxCell id="Zkl5If-U3AhfvewL6hoa-11" value="" style="verticalLabelPosition=bottom;verticalAlign=top;html=1;shape=mxgraph.infographic.shadedCube;isoAngle=15;fillColor=#3399FF;strokeColor=default;fillOpacity=100;strokeWidth=5;perimeterSpacing=0;opacity=40;shadow=0;" vertex="1" parent="1">
          <mxGeometry x="200" y="30" width="640" height="677" as="geometry" />
        </mxCell>
        <mxCell id="Zkl5If-U3AhfvewL6hoa-12" value="Cloud Platform" style="text;html=1;align=center;verticalAlign=middle;resizable=0;points=[];autosize=1;strokeColor=none;fillColor=none;fontFamily=Courier New;rotation=-90;fontStyle=1;fontSize=26;arcSize=12;rounded=0;shadow=0;textShadow=1;" vertex="1" parent="1">
          <mxGeometry x="60" y="340" width="240" height="40" as="geometry" />
        </mxCell>
        <mxCell id="PVkWGDwX1_od7eJ5YprH-1" value="" style="verticalLabelPosition=bottom;verticalAlign=top;html=1;shape=mxgraph.infographic.shadedCube;isoAngle=15;fillColor=#CCCCCC;strokeColor=default;" vertex="1" parent="1">
          <mxGeometry x="230" y="10" width="560" height="300" as="geometry" />
        </mxCell>
        <mxCell id="PVkWGDwX1_od7eJ5YprH-2" value="Applications!" style="text;html=1;align=center;verticalAlign=middle;resizable=0;points=[];autosize=1;strokeColor=none;fillColor=none;fontFamily=Courier New;rotation=25.5;fontStyle=1;fontSize=18;arcSize=12;rounded=0;" vertex="1" parent="1">
          <mxGeometry x="295" y="210" width="160" height="40" as="geometry" />
        </mxCell>
      </root>
    </mxGraphModel>
  </diagram>
</mxfile>
